<?xml version="1.0" encoding="utf-8"?>
<svg id="master-artboard" viewBox="0 0 1531.5262451171875 892.7631225585938" version="1.1" xmlns="http://www.w3.org/2000/svg" x="0px" y="0px" style="enable-background:new 0 0 1400 980;" width="1531.5262451171875px" height="892.7631225585938px"><defs><style id="ee-google-fonts">@import url(https://fonts.googleapis.com/css?family=Caudex:400,400italic,700,700italic);</style></defs><rect id="ee-background" x="0" y="0" width="1531.5262451171875" height="892.7631225585938" style="fill: white; fill-opacity: 0; pointer-events: none;"/><g transform="matrix(1.6360769271850584, 0, 0, 1.6360769271850584, -715.4334391296281, -754.5435180664061)"><g transform="matrix(1, 0, 0, 1, 0, 0)"><path d="M 517.100006 668.200012 A 15 15 0 0 1 502.100006 683.200012 A 15 15 0 0 1 487.100006 668.200012 A 15 15 0 0 1 502.100006 653.200012 A 15 15 0 0 1 517.100006 668.200012 Z" class="st1" style="fill: rgb(233, 190, 72);" transform="matrix(1, 0, 0, 1, 0, 0)"/><path d="M 609.300013 683.200012 A 22.6 22.6 0 0 1 586.700012 705.800013 A 22.6 22.6 0 0 1 564.100012 683.200012 A 22.6 22.6 0 0 1 586.700012 660.600012 A 22.6 22.6 0 0 1 609.300013 683.200012 Z" class="st1" style="fill: rgb(233, 190, 72);" transform="matrix(1, 0, 0, 1, 0, 0)"/><path d="M 533.599976 737.400024 A 15.5 15.5 0 0 1 518.099976 752.900024 A 15.5 15.5 0 0 1 502.599976 737.400024 A 15.5 15.5 0 0 1 518.099976 721.900024 A 15.5 15.5 0 0 1 533.599976 737.400024 Z" class="st1" style="fill: rgb(233, 190, 72);" transform="matrix(1, 0, 0, 1, 0, 0)"/><path class="st1" d="M495.3,800.6c1,10.2-2.9,34.9-2.9,34.9c12.1,2.4,94.6,31,94.6,31l5.8-27.7c45.1,18.9,53.4,0,50.5-7.3&#10;&#9;&#9;&#9;c-2.9-7.3-4.4-19.9,0.5-20.4c4.9-0.5,8.7-5.3,9.7-8.2c1-2.9-3.9-4.9-3.9-6.8c0-1.9,2.4-4.4,5.8-5.8c3.4-1.5,3.9-6.8,1.9-9.2&#10;&#9;&#9;&#9;c-1.9-2.4-3.4-8.2,1-8.7c4.4-0.5,16-3.9,15-8.2c-1-4.4-23.3-48.5-21.3-51.9c1.9-3.4,5.8-8.2,3.9-28.1&#10;&#9;&#9;&#9;c-7.8-54.3-64.5-100.4-140.2-72.3c-75.7,28.1-67.4,88.3-62.6,115C457.9,753.6,495.3,800.6,495.3,800.6z M534.1,674h-6.5&#10;&#9;&#9;&#9;c-0.7,2.9-1.8,5.7-3.3,8.1l4.6,4.6l-8.2,8.2l-4.6-4.6c-2.5,1.5-5.2,2.6-8.1,3.3v6.5h-11.6v-6.5c-2.9-0.7-5.7-1.8-8.1-3.3l-4.6,4.6&#10;&#9;&#9;&#9;l-8.2-8.2l4.6-4.6c-1.5-2.5-2.6-5.2-3.3-8.1H470v-11.6h6.5c0.7-2.9,1.8-5.7,3.3-8.1l-4.6-4.6l8.2-8.2l4.6,4.6&#10;&#9;&#9;&#9;c2.5-1.5,5.2-2.6,8.1-3.3v-6.5h11.6v6.5c2.9,0.7,5.7,1.8,8.1,3.3l4.6-4.6l8.2,8.2l-4.6,4.6c1.5,2.5,2.6,5.2,3.3,8.1h6.5V674z&#10;&#9;&#9;&#9; M558.9,723.4L546.6,711l6.9-6.9c-2.3-3.7-4-7.8-5-12.2h-9.8v-17.5h9.8c1-4.4,2.7-8.5,5-12.2l-6.9-6.9l12.3-12.3l6.9,6.9&#10;&#9;&#9;&#9;c3.7-2.3,7.8-4,12.2-5v-9.8h17.5v9.8c4.4,1,8.5,2.7,12.2,5l6.9-6.9l12.3,12.3l-6.9,6.9c2.3,3.7,4,7.8,5,12.2h9.8V692h-9.8&#10;&#9;&#9;&#9;c-1,4.4-2.7,8.5-5,12.2l6.9,6.9l-12.3,12.3l-6.9-6.9c-3.7,2.3-7.8,4-12.2,5v9.8H578v-9.8c-4.4-1-8.5-2.7-12.2-5L558.9,723.4z&#10;&#9;&#9;&#9; M490.4,756.5l4.7-4.7c-1.6-2.5-2.7-5.4-3.4-8.4H485v-12h6.8c0.7-3,1.8-5.8,3.4-8.4l-4.8-4.7l8.5-8.5l4.7,4.7&#10;&#9;&#9;&#9;c2.5-1.6,5.4-2.7,8.4-3.4v-6.8h12v6.8c3,0.7,5.8,1.8,8.4,3.4l4.7-4.7l8.5,8.5L541,723c1.6,2.5,2.7,5.4,3.4,8.4h6.8v12h-6.8&#10;&#9;&#9;&#9;c-0.7,3-1.8,5.8-3.4,8.4l4.7,4.7l-8.5,8.5l-4.7-4.7c-2.5,1.6-5.4,2.7-8.4,3.4v6.8h-12v-6.8c-3-0.7-5.8-1.8-8.4-3.4l-4.7,4.7&#10;&#9;&#9;&#9;L490.4,756.5z" style="fill: rgb(233, 190, 72);" transform="matrix(1, 0, 0, 1, 0, 0)"/></g></g><path d="M 529.8226318359375 292.3599853515625 C 530.4559326171875 292.32000732421875 531.0626220703125 292.1533203125 531.6426391601562 291.8599853515625 C 532.2225952148438 291.5666809082031 532.6892700195312 291.13665771484375 533.0426025390625 290.57000732421875 C 533.4093017578125 289.989990234375 533.5925903320312 289.2833251953125 533.5925903320312 288.45001220703125 L 533.5925903320312 288.32000732421875 C 533.5726318359375 287.44000244140625 533.2392578125 286.76666259765625 532.5925903320312 286.29998779296875 C 532.2926025390625 286.0799865722656 531.9326171875 285.90667724609375 531.5126342773438 285.7799987792969 C 530.6792602539062 285.5533447265625 529.8326416015625 285.3933410644531 528.9725952148438 285.29998779296875 C 528.1126098632812 285.2066650390625 527.2926025390625 284.97332763671875 526.5126342773438 284.6000061035156 C 525.8192749023438 284.2733459472656 525.3026123046875 283.7900085449219 524.9625854492188 283.1499938964844 C 524.615966796875 282.51666259765625 524.442626953125 281.8233337402344 524.442626953125 281.07000732421875 C 524.442626953125 279.60333251953125 524.9559326171875 278.4033203125 525.9826049804688 277.4700012207031 C 527.029296875 276.5033264160156 528.3493041992188 276.0199890136719 529.942626953125 276.0199890136719 L 530.2926025390625 276.0199890136719 C 532.0325927734375 276.1000061035156 533.5126342773438 276.5333251953125 534.7326049804688 277.32000732421875 L 534.45263671875 279.7799987792969 C 534.4392700195312 279.9200134277344 534.365966796875 279.989990234375 534.2326049804688 279.989990234375 L 534.1826171875 279.989990234375 C 534.0826416015625 279.98333740234375 533.9859619140625 279.8733215332031 533.8926391601562 279.6600036621094 C 533.5526123046875 278.9599914550781 533.0626220703125 278.36334228515625 532.422607421875 277.8699951171875 C 531.7825927734375 277.3699951171875 531.0925903320312 277.10333251953125 530.3526000976562 277.07000732421875 L 530.16259765625 277.07000732421875 C 529.442626953125 277.07000732421875 528.8026123046875 277.20001220703125 528.2426147460938 277.4599914550781 C 527.8759155273438 277.64666748046875 527.5826416015625 277.85333251953125 527.3626098632812 278.0799865722656 C 527.1559448242188 278.29998779296875 526.9759521484375 278.57000732421875 526.8226318359375 278.8900146484375 C 526.6959228515625 279.1499938964844 526.5993041992188 279.45001220703125 526.5325927734375 279.7900085449219 C 526.4725952148438 280.0433349609375 526.442626953125 280.2833251953125 526.442626953125 280.510009765625 C 526.442626953125 280.80999755859375 526.4926147460938 281.0899963378906 526.5925903320312 281.3500061035156 C 526.7526245117188 281.8766784667969 527.0325927734375 282.2799987792969 527.4326171875 282.55999755859375 C 527.7392578125 282.78668212890625 528.0726318359375 282.9433288574219 528.4326171875 283.0299987792969 C 528.6259155273438 283.0833435058594 528.8626098632812 283.13665771484375 529.1426391601562 283.19000244140625 C 529.422607421875 283.2366638183594 529.7159423828125 283.2833251953125 530.0225830078125 283.3299865722656 C 530.4692993164062 283.4033203125 530.9392700195312 283.4766540527344 531.4326171875 283.54998779296875 C 531.9326171875 283.6233215332031 532.4159545898438 283.7300109863281 532.8826293945312 283.8699951171875 C 533.66259765625 284.1233215332031 534.2426147460938 284.4566650390625 534.6226196289062 284.8699951171875 C 534.9093017578125 285.19000244140625 535.1426391601562 285.5400085449219 535.3226318359375 285.9200134277344 C 535.529296875 286.44000244140625 535.6326293945312 287.00665283203125 535.6326293945312 287.6199951171875 C 535.6326293945312 289.2933349609375 534.95263671875 290.6833190917969 533.5925903320312 291.7900085449219 C 532.8926391601562 292.3699951171875 532.115966796875 292.7966613769531 531.2626342773438 293.07000732421875 C 530.575927734375 293.2900085449219 529.8425903320312 293.4166564941406 529.0626220703125 293.45001220703125 C 528.8892822265625 293.4566650390625 528.7192993164062 293.4599914550781 528.5526123046875 293.4599914550781 C 527.4725952148438 293.4599914550781 526.4359741210938 293.3066711425781 525.442626953125 293 L 524.3226318359375 289.9100036621094 C 524.3092651367188 289.8699951171875 524.3026123046875 289.8299865722656 524.3026123046875 289.7900085449219 C 524.3026123046875 289.7099914550781 524.3292846679688 289.6300048828125 524.3826293945312 289.54998779296875 C 524.4492797851562 289.45001220703125 524.5325927734375 289.3999938964844 524.6326293945312 289.3999938964844 C 524.7259521484375 289.4266662597656 524.8226318359375 289.5400085449219 524.922607421875 289.739990234375 C 525.422607421875 290.82666015625 526.0526123046875 291.5533447265625 526.8126220703125 291.9200134277344 C 527.4392700195312 292.2266540527344 528.2326049804688 292.3800048828125 529.192626953125 292.3800048828125 C 529.3926391601562 292.3800048828125 529.6026000976562 292.3733215332031 529.8226318359375 292.3599853515625 ZM 545.4886474609375 291.9800109863281 L 542.2686157226562 293.1600036621094 C 542.0152587890625 293.2466735839844 541.80859375 293.2900085449219 541.6486206054688 293.2900085449219 L 541.1686401367188 293.2900085449219 C 540.0552978515625 293.2366638183594 539.0952758789062 292.7833251953125 538.2886352539062 291.92999267578125 C 537.4886474609375 291.0833435058594 537.031982421875 290.0366516113281 536.9186401367188 288.7900085449219 C 536.8919677734375 288.46331787109375 536.8786010742188 288.14666748046875 536.8786010742188 287.8399963378906 C 536.8786010742188 287.4333190917969 536.9052734375 287.0400085449219 536.9586181640625 286.6600036621094 C 537.0519409179688 285.99334716796875 537.30859375 285.3299865722656 537.7286376953125 284.6700134277344 C 537.935302734375 284.3233337402344 538.2852783203125 283.96331787109375 538.7786254882812 283.5899963378906 C 538.9453125 283.4700012207031 539.1353149414062 283.36334228515625 539.3486328125 283.2699890136719 C 539.9752807617188 283.03668212890625 540.6019287109375 282.8033447265625 541.2286376953125 282.57000732421875 C 541.8552856445312 282.336669921875 542.4852905273438 282.10333251953125 543.1185913085938 281.8699951171875 C 543.251953125 281.8233337402344 543.3786010742188 281.79998779296875 543.4985961914062 281.79998779296875 L 543.55859375 281.79998779296875 C 544.05859375 281.82000732421875 544.6619262695312 281.9433288574219 545.3685913085938 282.1700134277344 C 545.435302734375 282.1966552734375 545.4752807617188 282.21331787109375 545.4886474609375 282.2200012207031 C 545.6619262695312 282.28668212890625 545.8719482421875 282.36334228515625 546.1185913085938 282.45001220703125 C 546.2252807617188 282.48333740234375 546.318603515625 282.5 546.3986206054688 282.5 C 546.5252685546875 282.5 546.6353149414062 282.46331787109375 546.7286376953125 282.3900146484375 C 546.895263671875 282.25 547.011962890625 282.1333312988281 547.07861328125 282.0400085449219 C 547.1185913085938 281.9866638183594 547.1719360351562 281.9599914550781 547.2386474609375 281.9599914550781 C 547.27197265625 281.9599914550781 547.30859375 281.9666748046875 547.3486328125 281.9800109863281 C 547.52197265625 282.0466613769531 547.608642578125 282.1266784667969 547.608642578125 282.2200012207031 L 547.608642578125 291.2900085449219 C 547.608642578125 291.7966613769531 547.8052978515625 292.1199951171875 548.1986083984375 292.260009765625 C 548.5852661132812 292.3933410644531 548.7786254882812 292.5566711425781 548.7786254882812 292.75 C 548.7786254882812 292.9166564941406 548.6986083984375 293 548.5386352539062 293 L 545.6885986328125 293 C 545.5552978515625 293 545.4886474609375 292.95001220703125 545.4886474609375 292.8500061035156 L 545.4886474609375 291.9800109863281 M 545.4886474609375 283.989990234375 C 545.1686401367188 283.69000244140625 544.7453002929688 283.413330078125 544.2186279296875 283.1600036621094 C 543.6986083984375 282.90667724609375 543.2352905273438 282.7733459472656 542.82861328125 282.760009765625 L 542.7786254882812 282.760009765625 C 542.6253051757812 282.760009765625 542.4686279296875 282.7900085449219 542.30859375 282.8500061035156 C 542.0286254882812 282.95001220703125 541.751953125 283.0533447265625 541.4786376953125 283.1600036621094 C 541.1986083984375 283.26666259765625 540.9186401367188 283.3699951171875 540.6386108398438 283.4700012207031 C 540.4453125 283.54998779296875 540.2886352539062 283.6533203125 540.1686401367188 283.7799987792969 C 539.6819458007812 284.2933349609375 539.358642578125 284.9166564941406 539.1986083984375 285.6499938964844 C 539.0653076171875 286.2033386230469 538.9985961914062 286.7533264160156 538.9985961914062 287.29998779296875 C 538.9985961914062 287.47332763671875 539.0053100585938 287.6499938964844 539.0186157226562 287.8299865722656 C 539.1052856445312 288.9566650390625 539.4119262695312 289.8699951171875 539.9385986328125 290.57000732421875 C 540.4586181640625 291.2966613769531 541.1119384765625 291.7699890136719 541.8986206054688 291.989990234375 C 542.1986083984375 292.07666015625 542.501953125 292.1199951171875 542.80859375 292.1199951171875 C 542.9019775390625 292.1199951171875 542.9985961914062 292.1166687011719 543.0986328125 292.1099853515625 C 543.27197265625 292.0966796875 543.4752807617188 292.0466613769531 543.7086181640625 291.9599914550781 C 543.8886108398438 291.8933410644531 544.1686401367188 291.7900085449219 544.5486450195312 291.6499938964844 C 544.935302734375 291.5033264160156 545.2485961914062 291.3833312988281 545.4886474609375 291.2900085449219 L 545.4886474609375 283.989990234375 ZM 554.2742919921875 283.05999755859375 L 557.3642578125 281.92999267578125 C 557.5909423828125 281.8500061035156 557.7942504882812 281.8033447265625 557.9742431640625 281.7900085449219 C 558.0409545898438 281.7900085449219 558.1142578125 281.7900085449219 558.1942749023438 281.7900085449219 C 558.2742919921875 281.7966613769531 558.3609619140625 281.79998779296875 558.4542846679688 281.79998779296875 C 559.5542602539062 281.8466796875 560.5109252929688 282.29998779296875 561.3242797851562 283.1600036621094 C 562.1176147460938 284.02667236328125 562.5742797851562 285.07666015625 562.6942749023438 286.30999755859375 C 562.720947265625 286.6300048828125 562.7342529296875 286.9433288574219 562.7342529296875 287.25 C 562.7342529296875 287.6700134277344 562.7075805664062 288.07000732421875 562.6542358398438 288.45001220703125 C 562.5542602539062 289.1166687011719 562.3009033203125 289.77667236328125 561.894287109375 290.42999267578125 C 561.6742553710938 290.7833251953125 561.3242797851562 291.1433410644531 560.84423828125 291.510009765625 C 560.6709594726562 291.63665771484375 560.4776000976562 291.74334716796875 560.2642822265625 291.8299865722656 C 558.8975830078125 292.34332275390625 557.6409301757812 292.8066711425781 556.4942626953125 293.2200012207031 C 556.3609619140625 293.26666259765625 556.23095703125 293.2900085449219 556.104248046875 293.2900085449219 L 556.0642700195312 293.2900085449219 C 555.5975952148438 293.2699890136719 555.0009155273438 293.1533203125 554.2742919921875 292.94000244140625 L 554.2742919921875 298.1700134277344 C 554.2742919921875 298.6700134277344 554.470947265625 298.989990234375 554.8642578125 299.1300048828125 C 555.257568359375 299.2699890136719 555.4542846679688 299.44000244140625 555.4542846679688 299.6400146484375 C 555.4542846679688 299.79998779296875 555.374267578125 299.8800048828125 555.2142944335938 299.8800048828125 L 551.2442626953125 299.8800048828125 C 551.0775756835938 299.8800048828125 550.9942626953125 299.79998779296875 550.9942626953125 299.6400146484375 C 550.9942626953125 299.44000244140625 551.19091796875 299.2699890136719 551.5842895507812 299.1300048828125 C 551.970947265625 298.989990234375 552.1642456054688 298.6700134277344 552.1642456054688 298.1700134277344 L 552.1642456054688 283.7900085449219 C 552.1642456054688 283.2966613769531 551.970947265625 282.9800109863281 551.5842895507812 282.8399963378906 C 551.19091796875 282.70001220703125 550.9942626953125 282.52667236328125 550.9942626953125 282.32000732421875 C 550.9942626953125 282.1600036621094 551.0775756835938 282.0799865722656 551.2442626953125 282.0799865722656 C 551.757568359375 282.0533447265625 552.267578125 281.97332763671875 552.7742919921875 281.8399963378906 C 553.2742919921875 281.70001220703125 553.7742919921875 281.5433349609375 554.2742919921875 281.3699951171875 L 554.2742919921875 283.05999755859375 M 554.2742919921875 291.239990234375 C 554.6076049804688 291.5199890136719 555.0142822265625 291.7733459472656 555.4942626953125 292 C 555.9742431640625 292.2200012207031 556.4075927734375 292.3333435058594 556.7942504882812 292.3399963378906 L 556.8642578125 292.3399963378906 C 556.9909057617188 292.3399963378906 557.1375732421875 292.30999755859375 557.3042602539062 292.25 C 557.5842895507812 292.1499938964844 557.8642578125 292.04998779296875 558.144287109375 291.95001220703125 C 558.4176025390625 291.84332275390625 558.6942749023438 291.7366638183594 558.9742431640625 291.6300048828125 C 559.1542358398438 291.57000732421875 559.3142700195312 291.4666748046875 559.4542846679688 291.32000732421875 C 559.9276123046875 290.8133239746094 560.2476196289062 290.1933288574219 560.4142456054688 289.4599914550781 C 560.547607421875 288.90667724609375 560.6142578125 288.35333251953125 560.6142578125 287.79998779296875 C 560.6142578125 287.6199951171875 560.6076049804688 287.4433288574219 560.59423828125 287.2699890136719 C 560.507568359375 286.1499938964844 560.2042846679688 285.2366638183594 559.6842651367188 284.5299987792969 C 559.1509399414062 283.80999755859375 558.4942626953125 283.336669921875 557.7142944335938 283.1099853515625 C 557.4009399414062 283.0233459472656 557.0909423828125 282.9800109863281 556.7842407226562 282.9800109863281 C 556.69091796875 282.9800109863281 556.6009521484375 282.98333740234375 556.5142822265625 282.989990234375 C 556.3342895507812 283.01666259765625 556.1309204101562 283.0666809082031 555.9042358398438 283.1400146484375 C 555.7442626953125 283.2066650390625 555.4976196289062 283.29998779296875 555.1642456054688 283.4200134277344 C 554.8309326171875 283.5400085449219 554.5342407226562 283.64666748046875 554.2742919921875 283.739990234375 L 554.2742919921875 291.239990234375 ZM 573.0513305664062 291.9800109863281 L 569.831298828125 293.1600036621094 C 569.5779418945312 293.2466735839844 569.3712768554688 293.2900085449219 569.2113037109375 293.2900085449219 L 568.7313232421875 293.2900085449219 C 567.6179809570312 293.2366638183594 566.657958984375 292.7833251953125 565.851318359375 291.92999267578125 C 565.0513305664062 291.0833435058594 564.5946655273438 290.0366516113281 564.4813232421875 288.7900085449219 C 564.4546508789062 288.46331787109375 564.4412841796875 288.14666748046875 564.4412841796875 287.8399963378906 C 564.4412841796875 287.4333190917969 564.4679565429688 287.0400085449219 564.5213012695312 286.6600036621094 C 564.6146240234375 285.99334716796875 564.8712768554688 285.3299865722656 565.2913208007812 284.6700134277344 C 565.4979858398438 284.3233337402344 565.8479614257812 283.96331787109375 566.34130859375 283.5899963378906 C 566.5079956054688 283.4700012207031 566.697998046875 283.36334228515625 566.9113159179688 283.2699890136719 C 567.5379638671875 283.03668212890625 568.1646118164062 282.8033447265625 568.7913208007812 282.57000732421875 C 569.41796875 282.336669921875 570.0479736328125 282.10333251953125 570.6812744140625 281.8699951171875 C 570.8146362304688 281.8233337402344 570.9412841796875 281.79998779296875 571.061279296875 281.79998779296875 L 571.1212768554688 281.79998779296875 C 571.6212768554688 281.82000732421875 572.224609375 281.9433288574219 572.9312744140625 282.1700134277344 C 572.9979858398438 282.1966552734375 573.0379638671875 282.21331787109375 573.0513305664062 282.2200012207031 C 573.224609375 282.28668212890625 573.4346313476562 282.36334228515625 573.6812744140625 282.45001220703125 C 573.7879638671875 282.48333740234375 573.8812866210938 282.5 573.9613037109375 282.5 C 574.0879516601562 282.5 574.197998046875 282.46331787109375 574.2913208007812 282.3900146484375 C 574.4579467773438 282.25 574.5746459960938 282.1333312988281 574.6412963867188 282.0400085449219 C 574.6812744140625 281.9866638183594 574.734619140625 281.9599914550781 574.8013305664062 281.9599914550781 C 574.8346557617188 281.9599914550781 574.8712768554688 281.9666748046875 574.9113159179688 281.9800109863281 C 575.0846557617188 282.0466613769531 575.1713256835938 282.1266784667969 575.1713256835938 282.2200012207031 L 575.1713256835938 291.2900085449219 C 575.1713256835938 291.7966613769531 575.3679809570312 292.1199951171875 575.7612915039062 292.260009765625 C 576.14794921875 292.3933410644531 576.34130859375 292.5566711425781 576.34130859375 292.75 C 576.34130859375 292.9166564941406 576.2612915039062 293 576.101318359375 293 L 573.2512817382812 293 C 573.1179809570312 293 573.0513305664062 292.95001220703125 573.0513305664062 292.8500061035156 L 573.0513305664062 291.9800109863281 M 573.0513305664062 283.989990234375 C 572.7313232421875 283.69000244140625 572.3079833984375 283.413330078125 571.7813110351562 283.1600036621094 C 571.2612915039062 282.90667724609375 570.7979736328125 282.7733459472656 570.3912963867188 282.760009765625 L 570.34130859375 282.760009765625 C 570.18798828125 282.760009765625 570.0313110351562 282.7900085449219 569.8712768554688 282.8500061035156 C 569.59130859375 282.95001220703125 569.3146362304688 283.0533447265625 569.0413208007812 283.1600036621094 C 568.7612915039062 283.26666259765625 568.4813232421875 283.3699951171875 568.2012939453125 283.4700012207031 C 568.0079956054688 283.54998779296875 567.851318359375 283.6533203125 567.7313232421875 283.7799987792969 C 567.24462890625 284.2933349609375 566.9213256835938 284.9166564941406 566.7612915039062 285.6499938964844 C 566.6279907226562 286.2033386230469 566.561279296875 286.7533264160156 566.561279296875 287.29998779296875 C 566.561279296875 287.47332763671875 566.5679931640625 287.6499938964844 566.581298828125 287.8299865722656 C 566.66796875 288.9566650390625 566.974609375 289.8699951171875 567.5012817382812 290.57000732421875 C 568.0213012695312 291.2966613769531 568.6746215820312 291.7699890136719 569.4613037109375 291.989990234375 C 569.7612915039062 292.07666015625 570.0646362304688 292.1199951171875 570.3712768554688 292.1199951171875 C 570.4646606445312 292.1199951171875 570.561279296875 292.1166687011719 570.6613159179688 292.1099853515625 C 570.8346557617188 292.0966796875 571.0379638671875 292.0466613769531 571.2713012695312 291.9599914550781 C 571.4512939453125 291.8933410644531 571.7313232421875 291.7900085449219 572.111328125 291.6499938964844 C 572.4979858398438 291.5033264160156 572.811279296875 291.3833312988281 573.0513305664062 291.2900085449219 L 573.0513305664062 283.989990234375 ZM 583.5169677734375 292.3599853515625 C 584.1502685546875 292.32000732421875 584.7569580078125 292.1533203125 585.3369750976562 291.8599853515625 C 585.9169311523438 291.5666809082031 586.3836059570312 291.13665771484375 586.7369384765625 290.57000732421875 C 587.1036376953125 289.989990234375 587.2869262695312 289.2833251953125 587.2869262695312 288.45001220703125 L 587.2869262695312 288.32000732421875 C 587.2669677734375 287.44000244140625 586.93359375 286.76666259765625 586.2869262695312 286.29998779296875 C 585.9869384765625 286.0799865722656 585.626953125 285.90667724609375 585.2069702148438 285.7799987792969 C 584.3735961914062 285.5533447265625 583.5269775390625 285.3933410644531 582.6669311523438 285.29998779296875 C 581.8069458007812 285.2066650390625 580.9869384765625 284.97332763671875 580.2069702148438 284.6000061035156 C 579.5136108398438 284.2733459472656 578.9969482421875 283.7900085449219 578.6569213867188 283.1499938964844 C 578.310302734375 282.51666259765625 578.136962890625 281.8233337402344 578.136962890625 281.07000732421875 C 578.136962890625 279.60333251953125 578.6502685546875 278.4033203125 579.6769409179688 277.4700012207031 C 580.7236328125 276.5033264160156 582.0436401367188 276.0199890136719 583.636962890625 276.0199890136719 L 583.9869384765625 276.0199890136719 C 585.7269287109375 276.1000061035156 587.2069702148438 276.5333251953125 588.4269409179688 277.32000732421875 L 588.14697265625 279.7799987792969 C 588.1336059570312 279.9200134277344 588.060302734375 279.989990234375 587.9269409179688 279.989990234375 L 587.876953125 279.989990234375 C 587.7769775390625 279.98333740234375 587.6802978515625 279.8733215332031 587.5869750976562 279.6600036621094 C 587.2469482421875 278.9599914550781 586.7569580078125 278.36334228515625 586.116943359375 277.8699951171875 C 585.4769287109375 277.3699951171875 584.7869262695312 277.10333251953125 584.0469360351562 277.07000732421875 L 583.85693359375 277.07000732421875 C 583.136962890625 277.07000732421875 582.4969482421875 277.20001220703125 581.9369506835938 277.4599914550781 C 581.5702514648438 277.64666748046875 581.2769775390625 277.85333251953125 581.0569458007812 278.0799865722656 C 580.8502807617188 278.29998779296875 580.6702880859375 278.57000732421875 580.5169677734375 278.8900146484375 C 580.3902587890625 279.1499938964844 580.2936401367188 279.45001220703125 580.2269287109375 279.7900085449219 C 580.1669311523438 280.0433349609375 580.136962890625 280.2833251953125 580.136962890625 280.510009765625 C 580.136962890625 280.80999755859375 580.1869506835938 281.0899963378906 580.2869262695312 281.3500061035156 C 580.4469604492188 281.8766784667969 580.7269287109375 282.2799987792969 581.126953125 282.55999755859375 C 581.43359375 282.78668212890625 581.7669677734375 282.9433288574219 582.126953125 283.0299987792969 C 582.3202514648438 283.0833435058594 582.5569458007812 283.13665771484375 582.8369750976562 283.19000244140625 C 583.116943359375 283.2366638183594 583.4102783203125 283.2833251953125 583.7169189453125 283.3299865722656 C 584.1636352539062 283.4033203125 584.6336059570312 283.4766540527344 585.126953125 283.54998779296875 C 585.626953125 283.6233215332031 586.1102905273438 283.7300109863281 586.5769653320312 283.8699951171875 C 587.35693359375 284.1233215332031 587.9369506835938 284.4566650390625 588.3169555664062 284.8699951171875 C 588.6036376953125 285.19000244140625 588.8369750976562 285.5400085449219 589.0169677734375 285.9200134277344 C 589.2236328125 286.44000244140625 589.3269653320312 287.00665283203125 589.3269653320312 287.6199951171875 C 589.3269653320312 289.2933349609375 588.64697265625 290.6833190917969 587.2869262695312 291.7900085449219 C 586.5869750976562 292.3699951171875 585.810302734375 292.7966613769531 584.9569702148438 293.07000732421875 C 584.270263671875 293.2900085449219 583.5369262695312 293.4166564941406 582.7569580078125 293.45001220703125 C 582.5836181640625 293.4566650390625 582.4136352539062 293.4599914550781 582.2469482421875 293.4599914550781 C 581.1669311523438 293.4599914550781 580.1303100585938 293.3066711425781 579.136962890625 293 L 578.0169677734375 289.9100036621094 C 578.0036010742188 289.8699951171875 577.9969482421875 289.8299865722656 577.9969482421875 289.7900085449219 C 577.9969482421875 289.7099914550781 578.0236206054688 289.6300048828125 578.0769653320312 289.54998779296875 C 578.1436157226562 289.45001220703125 578.2269287109375 289.3999938964844 578.3269653320312 289.3999938964844 C 578.4202880859375 289.4266662597656 578.5169677734375 289.5400085449219 578.616943359375 289.739990234375 C 579.116943359375 290.82666015625 579.7469482421875 291.5533447265625 580.5069580078125 291.9200134277344 C 581.1336059570312 292.2266540527344 581.9269409179688 292.3800048828125 582.886962890625 292.3800048828125 C 583.0869750976562 292.3800048828125 583.2969360351562 292.3733215332031 583.5169677734375 292.3599853515625 ZM 602.0347290039062 291.2900085449219 C 602.0347290039062 291.7966613769531 602.2280883789062 292.1199951171875 602.61474609375 292.260009765625 C 603.008056640625 292.3933410644531 603.2047119140625 292.5566711425781 603.2047119140625 292.75 C 603.2047119140625 292.9166564941406 603.1213989257812 293 602.9547119140625 293 L 600.11474609375 293 C 599.9813842773438 293 599.9147338867188 292.95001220703125 599.9147338867188 292.8500061035156 L 599.9147338867188 292.0899963378906 C 599.4813842773438 292.25 599.0980834960938 292.39666748046875 598.7647094726562 292.5299987792969 C 598.4380493164062 292.65667724609375 598.1314086914062 292.76666259765625 597.8447265625 292.8599853515625 C 597.1180419921875 293.1000061035156 596.374755859375 293.260009765625 595.61474609375 293.3399963378906 C 595.5014038085938 293.3466796875 595.3947143554688 293.3500061035156 595.2947387695312 293.3500061035156 C 594.6480712890625 293.3500061035156 594.0313720703125 293.1333312988281 593.4447021484375 292.70001220703125 C 592.4913940429688 291.9800109863281 592.0147094726562 290.4200134277344 592.0147094726562 288.0199890136719 L 592.0147094726562 283.7900085449219 C 592.0147094726562 283.2966613769531 591.8180541992188 282.9800109863281 591.4247436523438 282.8399963378906 C 591.0380859375 282.70001220703125 590.8447265625 282.52667236328125 590.8447265625 282.32000732421875 C 590.8447265625 282.1600036621094 590.9247436523438 282.0799865722656 591.084716796875 282.0799865722656 C 591.604736328125 282.0533447265625 592.11474609375 281.97332763671875 592.61474609375 281.8399963378906 C 593.1213989257812 281.70001220703125 593.6280517578125 281.5433349609375 594.1347045898438 281.3699951171875 L 594.1347045898438 288.0199890136719 C 594.1347045898438 289.739990234375 594.4913940429688 290.9433288574219 595.2047119140625 291.6300048828125 C 595.6580810546875 292.07666015625 596.2113647460938 292.29998779296875 596.86474609375 292.29998779296875 C 597.238037109375 292.29998779296875 597.6480712890625 292.22332763671875 598.0947265625 292.07000732421875 C 598.2614135742188 292.01666259765625 598.4747314453125 291.94000244140625 598.7347412109375 291.8399963378906 C 599.0014038085938 291.739990234375 599.2280883789062 291.6533203125 599.4147338867188 291.5799865722656 C 599.4547119140625 291.5666809082031 599.5213623046875 291.5433349609375 599.61474609375 291.510009765625 C 599.701416015625 291.4766540527344 599.8013916015625 291.4366760253906 599.9147338867188 291.3900146484375 L 599.9147338867188 283.7900085449219 C 599.9147338867188 283.2966613769531 599.7180786132812 282.9800109863281 599.32470703125 282.8399963378906 C 598.931396484375 282.70001220703125 598.7347412109375 282.52667236328125 598.7347412109375 282.32000732421875 C 598.7347412109375 282.1600036621094 598.8180541992188 282.0799865722656 598.9847412109375 282.0799865722656 C 599.498046875 282.0533447265625 600.008056640625 281.97332763671875 600.5147094726562 281.8399963378906 C 601.0213623046875 281.70001220703125 601.528076171875 281.5433349609375 602.0347290039062 281.3699951171875 L 602.0347290039062 291.2900085449219 ZM 608.8032836914062 282.9100036621094 C 609.169921875 282.7699890136719 609.4999389648438 282.64666748046875 609.7932739257812 282.5400085449219 C 610.0866088867188 282.4266662597656 610.3666381835938 282.3233337402344 610.63330078125 282.2300109863281 C 611.353271484375 281.98333740234375 612.0999755859375 281.82000732421875 612.873291015625 281.739990234375 C 612.9666137695312 281.73333740234375 613.0632934570312 281.7300109863281 613.1632690429688 281.7300109863281 C 613.8233032226562 281.7300109863281 614.449951171875 281.95001220703125 615.0432739257812 282.3900146484375 C 615.2432861328125 282.5566711425781 615.4066162109375 282.72332763671875 615.5332641601562 282.8900146484375 C 615.8865966796875 282.75665283203125 616.2033081054688 282.63665771484375 616.4832763671875 282.5299987792969 C 616.7699584960938 282.42333984375 617.0432739257812 282.3233337402344 617.3032836914062 282.2300109863281 C 618.0232543945312 281.98333740234375 618.7633056640625 281.82000732421875 619.5232543945312 281.739990234375 C 619.6299438476562 281.73333740234375 619.7332763671875 281.7300109863281 619.833251953125 281.7300109863281 C 620.4799194335938 281.7300109863281 621.0999755859375 281.95001220703125 621.6932983398438 282.3900146484375 C 622.6466064453125 283.1166687011719 623.123291015625 284.6766662597656 623.123291015625 287.07000732421875 L 623.123291015625 291.2900085449219 C 623.123291015625 291.7966613769531 623.3199462890625 292.1199951171875 623.7132568359375 292.260009765625 C 624.0999755859375 292.3933410644531 624.2932739257812 292.5566711425781 624.2932739257812 292.75 C 624.2932739257812 292.9166564941406 624.2132568359375 293 624.0532836914062 293 L 621.2033081054688 293 C 621.0765991210938 293 621.0133056640625 292.95001220703125 621.0133056640625 292.8500061035156 L 621.0133056640625 287.07000732421875 C 621.0133056640625 285.3566589355469 620.6599731445312 284.1533203125 619.9533081054688 283.4599914550781 C 619.4999389648438 283.0133361816406 618.9432983398438 282.7900085449219 618.2832641601562 282.7900085449219 C 617.9099731445312 282.7900085449219 617.4999389648438 282.8666687011719 617.0532836914062 283.0199890136719 C 616.8999633789062 283.0733337402344 616.7099609375 283.1400146484375 616.4832763671875 283.2200012207031 C 616.2633056640625 283.29998779296875 616.0599365234375 283.3766784667969 615.873291015625 283.45001220703125 C 616.2599487304688 284.25665283203125 616.4533081054688 285.46331787109375 616.4533081054688 287.07000732421875 L 616.4533081054688 291.2900085449219 C 616.4533081054688 291.7966613769531 616.6499633789062 292.1199951171875 617.0432739257812 292.260009765625 C 617.4366455078125 292.3933410644531 617.63330078125 292.5566711425781 617.63330078125 292.75 C 617.63330078125 292.9166564941406 617.5532836914062 293 617.393310546875 293 L 613.4232788085938 293 C 613.256591796875 293 613.1732788085938 292.9166564941406 613.1732788085938 292.75 C 613.1732788085938 292.5566711425781 613.3699340820312 292.3933410644531 613.7633056640625 292.260009765625 C 614.1499633789062 292.1199951171875 614.34326171875 291.7966613769531 614.34326171875 291.2900085449219 L 614.34326171875 287.07000732421875 C 614.34326171875 285.3566589355469 613.9899291992188 284.1533203125 613.2832641601562 283.4599914550781 C 612.8299560546875 283.0133361816406 612.2732543945312 282.7900085449219 611.61328125 282.7900085449219 C 611.2399291992188 282.7900085449219 610.8299560546875 282.8666687011719 610.38330078125 283.0199890136719 C 610.1099243164062 283.11334228515625 609.84326171875 283.2099914550781 609.583251953125 283.30999755859375 C 609.3233032226562 283.4100036621094 609.0632934570312 283.50665283203125 608.8032836914062 283.6000061035156 L 608.8032836914062 291.2900085449219 C 608.8032836914062 291.7966613769531 608.9999389648438 292.1199951171875 609.393310546875 292.260009765625 C 609.7799682617188 292.3933410644531 609.9732666015625 292.5566711425781 609.9732666015625 292.75 C 609.9732666015625 292.9166564941406 609.8966064453125 293 609.7432861328125 293 L 605.7732543945312 293 C 605.6066284179688 293 605.5232543945312 292.9166564941406 605.5232543945312 292.75 C 605.5232543945312 292.5566711425781 605.719970703125 292.3933410644531 606.11328125 292.260009765625 C 606.4999389648438 292.1199951171875 606.6932983398438 291.7966613769531 606.6932983398438 291.2900085449219 L 606.6932983398438 283.7900085449219 C 606.6932983398438 283.2966613769531 606.4999389648438 282.9800109863281 606.11328125 282.8399963378906 C 605.719970703125 282.70001220703125 605.5232543945312 282.52667236328125 605.5232543945312 282.32000732421875 C 605.5232543945312 282.1600036621094 605.6066284179688 282.0799865722656 605.7732543945312 282.0799865722656 C 606.28662109375 282.0533447265625 606.796630859375 281.97332763671875 607.3032836914062 281.8399963378906 C 607.8032836914062 281.70001220703125 608.3032836914062 281.5433349609375 608.8032836914062 281.3699951171875 L 608.8032836914062 282.9100036621094 ZM 636.3421020507812 282.69000244140625 L 628.8721313476562 292.07000732421875 L 633.9521484375 292.07000732421875 C 634.3521118164062 292.0566711425781 634.6887817382812 291.9200134277344 634.9620971679688 291.6600036621094 C 635.2354736328125 291.40667724609375 635.5387573242188 291.0433349609375 635.8721313476562 290.57000732421875 C 636.0721435546875 290.30999755859375 636.1987915039062 290.17999267578125 636.2521362304688 290.17999267578125 C 636.39208984375 290.17999267578125 636.4620971679688 290.25 636.4620971679688 290.3900146484375 L 636.4620971679688 292.239990234375 C 636.4620971679688 292.6199951171875 636.412109375 292.84332275390625 636.3121337890625 292.9100036621094 C 636.2054443359375 292.9700012207031 635.8754272460938 293 635.3221435546875 293 L 627.3021240234375 293.010009765625 C 626.7354736328125 293.0033264160156 626.35546875 292.9700012207031 626.162109375 292.9100036621094 C 626.0687866210938 292.8833312988281 626.0220947265625 292.8299865722656 626.0220947265625 292.75 C 626.0220947265625 292.663330078125 626.08544921875 292.5466613769531 626.2120971679688 292.3999938964844 L 633.6121215820312 282.9100036621094 L 629.4921264648438 282.9100036621094 C 629.08544921875 282.9100036621094 628.7554321289062 283.0400085449219 628.5021362304688 283.29998779296875 C 628.2554321289062 283.5533447265625 627.9654541015625 283.9100036621094 627.6321411132812 284.3699951171875 C 627.4387817382812 284.6300048828125 627.3154296875 284.760009765625 627.2621459960938 284.760009765625 C 627.115478515625 284.760009765625 627.0421142578125 284.6933288574219 627.0421142578125 284.55999755859375 L 627.0421142578125 282.70001220703125 C 627.0421142578125 282.3466796875 627.1021118164062 282.1300048828125 627.2221069335938 282.04998779296875 C 627.3488159179688 281.9700012207031 627.672119140625 281.92999267578125 628.192138671875 281.92999267578125 L 635.4721069335938 281.92999267578125 C 636.172119140625 281.92999267578125 636.5220947265625 282.0533447265625 636.5220947265625 282.29998779296875 C 636.5220947265625 282.40667724609375 636.4620971679688 282.53668212890625 636.3421020507812 282.69000244140625 Z" transform="matrix(9.660052299499512, 0, 0, 9.660052299499512, -4654.78271484375, -2274.5224609375)" style="fill: rgb(51, 51, 51); white-space: pre; color: rgb(51, 51, 51);"/></svg>